1e0eab5c5cb6ee0a77ff9c4611a3044b *tests/data/fate/atrac-matroska-remux.matroska
450932 tests/data/fate/atrac-matroska-remux.matroska
#tb 0: 1/1000
#media_type 0: audio
#codec_id 0: atrac1
#sample_rate 0: 44100
#channel_layout_name 0: stereo
0,          0,          0,       12,      424, 0x3b6509a4
0,         12,         12,       12,      424, 0x3b6509a4
0,         23,         23,       12,      424, 0x3b6509a4
0,         35,         35,       12,      424, 0x3b6509a4
0,         46,         46,       12,      424, 0x3b6509a4
0,         58,         58,       12,      424, 0x3b6509a4
0,         70,         70,       12,      424, 0x3b6509a4
0,         81,         81,       12,      424, 0x3b6509a4
0,         93,         93,       12,      424, 0x3b6509a4
0,        104,        104,       12,      424, 0x3b6509a4
0,        116,        116,       12,      424, 0x3b6509a4
0,        128,        128,       12,      424, 0x3b6509a4
0,        139,        139,       12,      424, 0x3b6509a4
0,        151,        151,       12,      424, 0x3b6509a4
0,        163,        163,       12,      424, 0x3b6509a4
0,        174,        174,       12,      424, 0x3b6509a4
0,        186,        186,       12,      424, 0x3b6509a4
0,        197,        197,       12,      424, 0x3b6509a4
0,        209,        209,       12,      424, 0x3b6509a4
0,        221,        221,       12,      424, 0x3b6509a4
0,        232,        232,       12,      424, 0x3b6509a4
0,        244,        244,       12,      424, 0x3b6509a4
0,        255,        255,       12,      424, 0x3b6509a4
0,        267,        267,       12,      424, 0x3b6509a4
0,        279,        279,       12,      424, 0x3b6509a4
0,        290,        290,       12,      424, 0x3b6509a4
0,        302,        302,       12,      424, 0x3b6509a4
0,        313,        313,       12,      424, 0x3b6509a4
0,        325,        325,       12,      424, 0x3b6509a4
0,        337,        337,       12,      424, 0x3b6509a4
0,        348,        348,       12,      424, 0x3b6509a4
0,        360,        360,       12,      424, 0x3b6509a4
0,        372,        372,       12,      424, 0x3b6509a4
0,        383,        383,       12,      424, 0x3b6509a4
0,        395,        395,       12,      424, 0x3b6509a4
0,        406,        406,       12,      424, 0x3b6509a4
0,        418,        418,       12,      424, 0x3b6509a4
0,        430,        430,       12,      424, 0x3b6509a4
0,        441,        441,       12,      424, 0x3b6509a4
0,        453,        453,       12,      424, 0x3b6509a4
0,        464,        464,       12,      424, 0x3b6509a4
0,        476,        476,       12,      424, 0x3b6509a4
0,        488,        488,       12,      424, 0x3b6509a4
0,        499,        499,       12,      424, 0x3b6509a4
0,        511,        511,       12,      424, 0x3b6509a4
0,        522,        522,       12,      424, 0x3b6509a4
0,        534,        534,       12,      424, 0x3b6509a4
0,        546,        546,       12,      424, 0x3b6509a4
0,        557,        557,       12,      424, 0x3b6509a4
0,        569,        569,       12,      424, 0x3b6509a4
0,        580,        580,       12,      424, 0x3b6509a4
0,        592,        592,       12,      424, 0x3b6509a4
0,        604,        604,       12,      424, 0x3b6509a4
0,        615,        615,       12,      424, 0x3b6509a4
0,        627,        627,       12,      424, 0x3b6509a4
0,        639,        639,       12,      424, 0x3b6509a4
0,        650,        650,       12,      424, 0x3b6509a4
0,        662,        662,       12,      424, 0x3b6509a4
0,        673,        673,       12,      424, 0x3b6509a4
0,        685,        685,       12,      424, 0x3b6509a4
0,        697,        697,       12,      424, 0x3b6509a4
0,        708,        708,       12,      424, 0x9699a148
0,        720,        720,       12,      424, 0x4b15b57e
0,        731,        731,       12,      424, 0x690fbe86
0,        743,        743,       12,      424, 0x8980bea4
0,        755,        755,       12,      424, 0xc792c244
0,        766,        766,       12,      424, 0x57e1bac4
0,        778,        778,       12,      424, 0xe813bebe
0,        789,        789,       12,      424, 0x022cbf4e
0,        801,        801,       12,      424, 0x36e1bdce
0,        813,        813,       12,      424, 0x243dbdf4
0,        824,        824,       12,      424, 0x8eeebba8
0,        836,        836,       12,      424, 0x8088bbac
0,        848,        848,       12,      424, 0xf75fbc8c
0,        859,        859,       12,      424, 0x9678c284
0,        871,        871,       12,      424, 0x45edbc50
0,        882,        882,       12,      424, 0xe9ffbe1e
0,        894,        894,       12,      424, 0x694bbdf0
0,        906,        906,       12,      424, 0x3f1ab970
0,        917,        917,       12,      424, 0x6114bbbe
0,        929,        929,       12,      424, 0xf67cc210
0,        940,        940,       12,      424, 0x9d9cbf4c
0,        952,        952,       12,      424, 0x72ecbe4e
0,        964,        964,       12,      424, 0x1bb4be96
0,        975,        975,       12,      424, 0x467cbc1c
0,        987,        987,       12,      424, 0x1b2abc80
0,        998,        998,       12,      424, 0xd0e3befc
